<?xml version="1.0" encoding="UTF-8"?>
<svg width="24px" height="24px" viewBox="0 0 24 24" version="1.1" xmlns="http://www.w3.org/2000/svg" xmlns:xlink="http://www.w3.org/1999/xlink">
    <title>slice/ic_Device_state</title>
    <g id="slice/ic_Device_state" stroke="none" stroke-width="1" fill="none" fill-rule="evenodd">
        <g id="Group" transform="translate(4.458994, 5.216629)">
            <line x1="3.99687338" y1="2.93001848" x2="3.99687338" y2="13.6761412" id="Stroke-5" stroke="#636363"></line>
            <path d="M15.2273469,3.24220091 L14.2573298,0.649578588 C14.1111624,0.258908317 13.7378565,1.45421108e-16 13.3207377,0 L2.64944397,0 C2.30140415,2.85978482e-16 1.97839832,0.18095821 1.79664069,0.477767705 L0.147196722,3.1713032 C0.0509408137,3.32848872 1.99472372e-16,3.50921923 0,3.6935355 L0,12.6763957 C-4.33869274e-17,13.2286805 0.44771525,13.6763957 1,13.6763957 L14.2907547,13.6763957 C14.8430395,13.6763957 15.2907547,13.2286805 15.2907547,12.6763957 L15.2907547,3.59262232 C15.2907547,3.47296227 15.2692783,3.35427357 15.2273469,3.24220091 Z" id="Stroke-1" stroke="#2E2F2F" stroke-width="1.2"></path>
            <polygon id="Fill-3" fill="#2E2F2F" points="2.08946305 0.000169692856 0.000251107205 3.37451213 15.2910058 3.37451213 14.0137072 0.000169692856"></polygon>
            <line x1="13.0594161" y1="9.52918717" x2="8.42648818" y2="9.52918717" id="Stroke-9" stroke="#636363"></line>
            <line x1="6.11044273" y1="7.07339216" x2="8.42648818" y2="7.07339216" id="Stroke-10" stroke="#636363"></line>
            <path d="M3.99687338,13.6758018 L3.99687338,3.24223655 L3.99687338,13.6758018 Z" id="Fill-4" fill="#2E2F2F"></path>
            <polygon id="Stroke-7" stroke="#2E2F2F" points="6.11044273 11.9020024 13.0594161 11.9020024 13.0594161 5.07865264 6.11044273 5.07865264"></polygon>
            <line x1="8.42673929" y1="5.07890718" x2="8.42673929" y2="11.9022569" id="Stroke-8" stroke="#2E2F2F"></line>
            <line x1="10.7430359" y1="5.07890718" x2="10.7430359" y2="11.9022569" id="Stroke-11" stroke="#2E2F2F"></line>
        </g>
    </g>
</svg>