<?xml version="1.0" encoding="UTF-8"?>
<svg width="24px" height="24px" viewBox="0 0 24 24" version="1.1" xmlns="http://www.w3.org/2000/svg" xmlns:xlink="http://www.w3.org/1999/xlink">
    <title>slice/ic_speedometer</title>
    <g id="slice/ic_speedometer" stroke="none" stroke-width="1" fill="none" fill-rule="evenodd">
        <line x1="4.25025147" y1="15.0863511" x2="5.61156238" y2="15.3593511" id="Stroke-5" stroke="#636363" stroke-width="0.8" stroke-linejoin="round"></line>
        <line x1="4.25025147" y1="15.0863511" x2="5.61156238" y2="15.3593511" id="Fill-3" fill="#2E2F2F"></line>
        <line x1="12.0810448" y1="7.27772105" x2="12.0810448" y2="8.90140284" id="Fill-7" fill="#2E2F2F"></line>
        <line x1="12.0810448" y1="7.27772105" x2="12.0810448" y2="8.90140284" id="Stroke-9" stroke="#464646" stroke-width="0.8" stroke-linejoin="round"></line>
        <line x1="7.76889422" y1="8.5391969" x2="8.66289422" y2="10.1050397" id="Fill-11" fill="#2E2F2F"></line>
        <line x1="7.76889422" y1="8.5391969" x2="8.66289422" y2="10.1050397" id="Stroke-13" stroke="#464646" stroke-width="0.8" stroke-linejoin="round"></line>
        <line x1="6.51208967" y1="12.5802953" x2="5.15580823" y2="11.3891482" id="Fill-15" fill="#2E2F2F"></line>
        <line x1="6.51208967" y1="12.5802953" x2="5.15580823" y2="11.3891482" id="Stroke-17" stroke="#636363" stroke-width="0.8" stroke-linejoin="round"></line>
        <line x1="19.75" y1="15.0906376" x2="18.166554" y2="15.3106376" id="Fill-19" fill="#2E2F2F"></line>
        <line x1="19.75" y1="15.0906376" x2="18.166554" y2="15.3106376" id="Stroke-21" stroke="#2E2F2F" stroke-width="0.8" stroke-linejoin="round"></line>
        <line x1="16.3930278" y1="8.5391969" x2="15.4990278" y2="10.1050397" id="Stroke-25" stroke="#464646" stroke-width="0.8" stroke-linejoin="round"></line>
        <path d="M19.75,15.0275534 C19.75,10.7474712 16.2805013,7.27797252 12.0004191,7.27797252 C7.72033692,7.27797252 4.25,10.7474712 4.25,15.0275534 C4.25,15.8549018 4.38244281,16.6503969 4.62301931,17.3981121 L19.3769807,17.3981121 C19.6175572,16.6503969 19.75,15.8549018 19.75,15.0275534 Z" id="Stroke-1" stroke="#2E2F2F" stroke-width="1.5"></path>
        <line x1="16.3930278" y1="8.5391969" x2="15.4990278" y2="10.1050397" id="Fill-23" fill="#2E2F2F"></line>
        <line x1="17.4885809" y1="12.5800438" x2="18.8448624" y2="11.389735" id="Fill-27" fill="#2E2F2F"></line>
        <line x1="17.4885809" y1="12.5800438" x2="18.8448624" y2="11.389735" id="Stroke-29" stroke="#2E2F2F" stroke-width="0.8" stroke-linejoin="round"></line>
        <path d="M13.0489806,14.0092526 C13.3499108,14.6320691 13.0883781,15.3814607 12.4655616,15.6823909 C11.8427451,15.9824828 11.0933535,15.7217884 10.7924233,15.0981337 C10.4914932,14.4753172 10.7530258,13.7267638 11.3758423,13.4258336 C11.9994971,13.1249035 12.7480504,13.3864361 13.0489806,14.0092526" id="Fill-31" fill="#2E2F2F"></path>
        <path d="M10.3748932,11.5272073 L10.7127062,14.41664 C10.7521037,14.7502617 11.1083581,14.9464112 11.4109648,14.7997182 L12.4311097,14.3076681 C12.7337164,14.1618133 12.8016143,13.7611319 12.5643908,13.5230701 L10.5123655,11.4609859 C10.4578795,11.4064999 10.3656725,11.4509269 10.3748932,11.5272073" id="Fill-33" fill="#2E2F2F"></path>
    </g>
</svg>